<?xml version="1.0" standalone="no"?>
<!DOCTYPE svg PUBLIC "-//W3C//DTD SVG 20010904//EN"
 "http://www.w3.org/TR/2001/REC-SVG-20010904/DTD/svg10.dtd">
<svg version="1.0" xmlns="http://www.w3.org/2000/svg"
 width="142.000000pt" height="142.000000pt" viewBox="0 0 142.000000 142.000000"
 preserveAspectRatio="xMidYMid meet">
<metadata>
Created by potrace 1.14, written by Peter Selinger 2001-2017
</metadata>
<g transform="translate(0.000000,142.000000) scale(0.100000,-0.100000)"
fill="#000000" stroke="none">
<path d="M0 710 l0 -710 710 0 710 0 0 710 0 710 -710 0 -710 0 0 -710z m1000
336 c0 -3 -55 -62 -123 -133 -214 -222 -265 -283 -252 -303 13 -21 31 -9 55
38 14 26 68 90 120 143 132 132 243 196 330 187 23 -2 36 -9 38 -20 4 -21 -60
-86 -134 -135 -33 -22 -51 -39 -43 -42 12 -4 -17 -15 -101 -36 -14 -4 2 9 35
27 62 34 205 164 205 186 0 6 -11 12 -25 12 -85 0 -271 -143 -381 -292 -43
-58 -52 -85 -19 -58 9 7 18 11 20 8 3 -3 -13 -17 -35 -32 -27 -18 -40 -33 -40
-49 1 -19 8 -14 50 32 42 46 133 168 177 237 9 15 12 16 12 4 2 -45 -163 -266
-220 -295 -32 -17 -39 -11 -36 34 3 36 -19 36 -31 1 -15 -43 -51 -90 -68 -90
-23 0 -16 33 20 93 33 54 34 60 29 130 -5 61 -3 75 12 87 15 13 19 12 31 -5 8
-10 14 -34 14 -52 0 -33 1 -32 78 59 121 144 242 268 263 268 11 0 19 -2 19
-4z m-293 -129 c-123 -119 -292 -342 -281 -371 5 -14 -32 -34 -42 -23 -13 13
69 142 161 252 61 73 63 79 19 57 -59 -29 -143 -55 -160 -48 -26 10 -6 24 35
24 68 1 181 61 267 143 48 46 79 68 82 60 2 -7 -34 -49 -81 -94z m341 -176 c6
-38 -17 -78 -78 -135 -68 -63 -132 -96 -183 -96 -35 0 -37 2 -37 33 0 17 9 47
21 66 24 40 36 36 14 -5 -8 -16 -15 -41 -15 -56 0 -22 5 -28 22 -28 31 0 108
53 167 115 60 63 78 100 59 122 -10 13 -9 15 7 12 12 -3 21 -14 23 -28z"/>
<path d="M600 723 c0 -41 3 -54 10 -43 13 20 13 87 0 95 -6 4 -10 -16 -10 -52z"/>
<path d="M572 568 c-16 -21 -44 -80 -39 -84 7 -7 25 19 42 59 16 38 15 46 -3
25z"/>
</g>
</svg>
