<?xml version="1.0" standalone="no"?>
<!DOCTYPE svg PUBLIC "-//W3C//DTD SVG 20010904//EN"
 "http://www.w3.org/TR/2001/REC-SVG-20010904/DTD/svg10.dtd">
<svg version="1.0" xmlns="http://www.w3.org/2000/svg"
 width="200.000000pt" height="200.000000pt" viewBox="0 0 200.000000 200.000000"
 preserveAspectRatio="xMidYMid meet">
<metadata>
Created by potrace 1.14, written by Peter Selinger 2001-2017
</metadata>
<g transform="translate(0.000000,200.000000) scale(0.100000,-0.100000)"
fill="#000000" stroke="none">
<path d="M890 1949 c-205 -22 -434 -132 -569 -273 -19 -20 -41 -36 -48 -36 -7
0 -13 -7 -13 -15 0 -8 -16 -35 -35 -60 -115 -151 -185 -365 -185 -565 0 -200
71 -418 186 -568 18 -25 34 -51 34 -58 0 -8 6 -14 13 -14 7 0 35 -23 62 -51
68 -69 211 -162 307 -199 464 -179 977 13 1203 451 69 133 96 240 102 394 4
97 1 152 -12 220 -78 417 -421 731 -845 775 -56 5 -107 9 -114 9 -6 -1 -45 -5
-86 -10z m319 -70 c166 -38 321 -129 447 -262 333 -349 326 -914 -16 -1255
-216 -217 -503 -234 -829 -49 l-74 42 69 5 69 5 3 638 2 637 -100 0 -100 0 0
-270 0 -270 -110 0 -110 0 -2 268 -3 267 -48 5 -49 5 29 26 c133 121 323 207
503 228 97 11 214 4 319 -20z m-951 -887 l-3 -177 -42 85 c-53 106 -73 183
-73 280 0 106 28 199 88 300 l27 45 3 -178 c1 -97 1 -257 0 -355z m422 -317
c0 -260 -1 -275 -17 -266 -10 5 -60 44 -110 86 l-93 76 0 189 0 190 110 0 110
0 0 -275z"/>
<path d="M1100 1000 l0 -640 113 0 c320 0 451 64 488 237 17 83 7 246 -18 303
-23 53 -77 103 -129 120 l-37 13 29 12 c42 18 94 73 117 125 29 63 35 198 13
274 -42 145 -157 195 -448 196 l-128 0 0 -640z m322 474 c41 -21 65 -66 73
-140 9 -90 -8 -166 -46 -198 -32 -27 -86 -46 -131 -46 l-28 0 0 206 0 207 52
-7 c28 -4 64 -14 80 -22z m21 -540 c48 -26 67 -82 67 -209 0 -167 -34 -215
-155 -223 l-65 -4 0 232 0 233 62 -7 c34 -4 75 -14 91 -22z"/>
</g>
</svg>
