<?xml version="1.0" encoding="UTF-8"?>
<svg width="48px" height="31px" viewBox="0 0 48 31" version="1.1" xmlns="http://www.w3.org/2000/svg" xmlns:xlink="http://www.w3.org/1999/xlink">
    <title>Care_brandmark_on_Noble_RGB</title>
    <g id="Symbols" stroke="none" stroke-width="1" fill="none" fill-rule="evenodd">
        <g id="footer--no-email-signup" transform="translate(-136.000000, -305.000000)" fill-rule="nonzero">
            <g id="Care_brandmark_on_Noble_RGB" transform="translate(136.000000, 305.000000)">
                <path d="M43.3167602,23.531676 C38.1844427,27.3244587 30.7271852,29.3414595 24.3271852,29.3414595 C15.7493567,29.3916234 7.46250363,26.2339424 1.09318364,20.4882117 C0.615878107,20.0519647 1.04186047,19.4617482 1.6064154,19.7953488 C8.68052725,23.8370704 16.6879823,25.9601252 24.8352847,25.9541299 C30.9240824,25.9252783 36.9470128,24.6920864 42.5571772,22.3255814 C43.4399358,21.9919808 44.1687249,22.9055333 43.3167602,23.531676 Z M44.1020048,26.9497995 C43.9172414,27.4219727 44.3175621,27.6118685 44.7435445,27.2526063 C47.499599,24.9481957 48.2129912,20.1135525 47.6535686,19.425822 C47.094146,18.7380914 42.2748998,18.1376103 39.3340818,20.2059342 C38.8773055,20.5241379 38.9594226,20.9603849 39.4572574,20.9039294 C41.114996,20.703769 44.8051323,20.2623897 45.462069,21.1040898 C46.1190056,21.9457899 44.7230152,25.4049719 44.1020048,26.9497995 Z" id="Shape" fill="#7E93EE"></path>
                <path d="M7.26736167,14.8734563 C5.18706228,14.8734563 3.59604384,14.2781075 2.49430634,13.0874098 C1.39256883,11.8967121 0.84170008,10.1739642 0.84170008,7.919166 C0.84170008,5.68147554 1.41138733,3.95017375 2.55076183,2.72526063 C3.69013633,1.5003475 5.2982625,0.887890938 7.37514034,0.887890938 C8.33209969,0.893229038 9.28065131,1.06695644 10.1773857,1.40112269 C10.5353743,1.48054019 10.7637018,1.83216462 10.6906175,2.1914996 L10.6906175,2.91002406 C10.6906175,3.25902165 10.5777065,3.42325581 10.3467522,3.42325581 C10.2038481,3.41164457 10.0626889,3.38410132 9.92590217,3.34113873 C9.21248058,3.13146504 8.47286388,3.0243243 7.72927025,3.02293504 C6.25116279,3.02293504 5.18535151,3.39759423 4.53183641,4.14691259 C3.8783213,4.89623095 3.55156375,6.09377172 3.55156375,7.73953488 L3.55156375,8.08340016 C3.55156375,9.69152633 3.88174285,10.8685378 4.54210104,11.6144346 C5.20245924,12.3603315 6.25287356,12.740123 7.69334403,12.7538091 C8.49891349,12.7435368 9.29895976,12.6191236 10.0696071,12.3842823 C10.1993082,12.3410926 10.3336975,12.3135255 10.4699278,12.3021652 C10.6957498,12.3021652 10.8137931,12.4817963 10.8137931,12.815397 L10.8137931,13.5236568 C10.8761581,13.8820543 10.6528021,14.2282561 10.3005613,14.319166 C9.33761865,14.7079647 8.30557613,14.8965614 7.26736167,14.8734563 L7.26736167,14.8734563 Z M16.7878107,14.9247795 C15.6834472,14.981528 14.6017202,14.5975703 13.7802727,13.8572574 C13.0143129,13.1045255 12.6054928,12.0610075 12.6562951,10.9882919 C12.6088861,9.80338331 13.1176599,8.66433755 14.0317562,7.90890136 C15.0880339,7.0954652 16.4008933,6.68758656 17.7321572,6.75926223 C18.8561331,6.77674547 19.9741334,6.92661608 21.0630313,7.20577386 L21.0630313,5.46078589 C21.0630313,4.51130714 20.8474739,3.83897354 20.4163593,3.45404972 C19.9852446,3.0691259 19.2513232,2.86896552 18.2094627,2.86896552 C16.9931502,2.86172235 15.7824723,3.03467633 14.6168404,3.38219727 C14.3680125,3.47261735 14.1097547,3.53459923 13.8469928,3.56696071 C13.6365678,3.56696071 13.5287891,3.41299118 13.5287891,3.09478749 L13.5287891,2.3967923 C13.4664241,2.03839478 13.6897801,1.69219299 14.0420209,1.60128308 C14.7083818,1.31985533 15.4063006,1.11995761 16.1206095,1.00593424 C16.9454804,0.857206372 17.7818776,0.781638659 18.6200481,0.780112269 C20.2931836,0.780112269 21.5266506,1.12226677 22.3204491,1.80657578 C23.110826,2.50457097 23.5111468,3.56182839 23.5111468,4.99374499 L23.5111468,14.0522855 C23.5239238,14.19193 23.4739706,14.330029 23.3748145,14.429185 C23.2756585,14.528341 23.1375595,14.5782943 22.997915,14.5655172 L21.8893344,14.5655172 C21.7420827,14.5848292 21.5936851,14.5394089 21.4824684,14.4409871 C21.3712518,14.3425653 21.3081215,14.2007928 21.3093825,14.0522855 L21.1759423,13.1797915 C20.5518399,13.7191076 19.8401858,14.1478358 19.0716921,14.4474739 C18.3469555,14.7480318 17.5722582,14.9099349 16.7878107,14.9247795 L16.7878107,14.9247795 Z M17.4190858,12.9437049 C18.0435578,12.9369573 18.6619903,12.820567 19.2461909,12.5998396 C19.9028065,12.3536719 20.517396,12.0074242 21.0681636,11.5733761 L21.0681636,8.89943865 C20.1512019,8.67312433 19.2103929,8.55767707 18.2659182,8.55557338 C16.274579,8.55557338 15.2789094,9.32199947 15.2789094,10.8548516 C15.2422932,11.4227238 15.4430273,11.9803187 15.8331997,12.3945469 C16.266239,12.7838081 16.8380566,12.9818162 17.4190858,12.9437049 L17.4190858,12.9437049 Z M27.9711307,14.5860465 C27.83102,14.600749 27.6917589,14.5514209 27.5921418,14.4518037 C27.4925246,14.3521865 27.4431965,14.2129254 27.457899,14.0728148 L27.457899,1.70906175 C27.4431965,1.56895106 27.4925246,1.42968997 27.5921418,1.33007279 C27.6917589,1.2304556 27.83102,1.18112752 27.9711307,1.19582999 L29.1310345,1.19582999 C29.2751284,1.18772636 29.4182917,1.22351718 29.5416199,1.29847634 C29.6561818,1.40209345 29.7276238,1.5449773 29.7417803,1.69879711 L29.9265437,3.17690457 C30.332917,2.72557872 30.7853027,2.3179156 31.2763432,1.96054531 C31.6758325,1.67367726 32.1173015,1.4503459 32.5850842,1.29847634 C33.0507893,1.15645055 33.5352593,1.08551029 34.0221331,1.08798541 C34.2376905,1.08798541 34.4481155,1.08798541 34.6585405,1.08798541 C34.7833853,1.08631808 34.9032529,1.13693608 34.9890685,1.22762746 C35.074884,1.31831885 35.1188073,1.44079814 35.1101844,1.56535686 L35.1101844,3.00240577 C35.1294179,3.13395841 35.0853581,3.26686358 34.9913474,3.36087428 C34.8973367,3.45488499 34.7644316,3.4989448 34.6328789,3.47971131 C34.479012,3.48766228 34.3248372,3.48766228 34.1709703,3.47971131 C34.0007131,3.45905619 33.829207,3.45048088 33.6577386,3.45404972 C32.3359461,3.42181583 31.0477298,3.87250909 30.0343224,4.72173216 L30.0343224,14.0522855 C30.0470994,14.19193 29.9971462,14.330029 29.8979902,14.429185 C29.7988341,14.528341 29.6607351,14.5782943 29.5210906,14.5655172 L27.9711307,14.5860465 Z M42.9369687,14.981235 C40.7677092,14.981235 39.1270783,14.3824646 38.0150762,13.1849238 C36.903074,11.9873831 36.3522053,10.2150227 36.3624699,7.86784282 C36.3624699,5.63015237 36.9167602,3.89029671 38.0253408,2.64827586 C39.1339214,1.40625501 40.6855921,0.783533814 42.6803528,0.780112269 C44.3534884,0.780112269 45.6399893,1.25228549 46.5398557,2.19663192 C47.439722,3.14097835 47.8896552,4.47538091 47.8896552,6.19983962 C47.8880137,6.77547018 47.8434097,7.35017539 47.7562149,7.919166 C47.7449767,8.07521393 47.6858267,8.22398501 47.5868484,8.34514836 C47.4737874,8.42179304 47.3381367,8.45796656 47.2019246,8.44779471 L38.8875702,8.44779471 C38.9217856,9.96696071 39.2964448,11.0875167 40.0115477,11.8094627 C40.7249399,12.5279872 41.8335204,12.8923817 43.3321572,12.8923817 C43.847359,12.8949159 44.3620281,12.8588891 44.8718524,12.784603 C45.4941739,12.6797751 46.108198,12.530557 46.7092221,12.3380914 L47.0274258,12.2457097 C47.1032434,12.2188099 47.1830648,12.2049279 47.2635124,12.2046512 C47.4944667,12.2046512 47.6073777,12.363753 47.6073777,12.6819567 L47.6073777,13.4210104 C47.6258318,13.5985306 47.5900429,13.7774751 47.5047314,13.9342422 C47.380695,14.0699944 47.225775,14.1738612 47.0530874,14.2370489 C46.4453652,14.4905986 45.8121702,14.6781482 45.1643945,14.7964715 C44.4293903,14.9280349 43.6836046,14.9898973 42.9369687,14.981235 Z M45.4723336,6.70280674 C45.4837944,6.47370646 45.4837944,6.24417646 45.4723336,6.01507618 C45.5363005,5.13808193 45.2668566,4.26926275 44.7178829,3.58235766 C44.1342204,3.00502536 43.3298428,2.70759272 42.5109864,2.76631917 C41.5537942,2.71738881 40.6208962,3.07748745 39.9448276,3.75685646 C39.2655371,4.58884235 38.8923324,5.62874278 38.8875702,6.70280674 L45.4723336,6.70280674 Z" id="Shape" fill="#FFFFFF"></path>
            </g>
        </g>
    </g>
</svg>